<?xml version='1.0' encoding='utf-8'?>
<svg xmlns="http://www.w3.org/2000/svg" version="1.1" width="1080px" height="2132px" viewBox="0 0 1080 2132"> <g id="layer1"> <g style="fill:rgb(255,255,255); fill-opacity:1.0; stroke-linejoin: miter"> <path d="M-359.001,354.11908C-359.23438,354.11908,-359.4582,354.2118,-359.6232,354.3768C-359.7882,354.5418,-359.88092,354.76562,-359.88092,354.999L-359.8799,1519.0C-359.8799,1519.486,-359.48596,1519.8799,-359.0,1519.8799L1270.001,1519.8809C1270.2344,1519.8809,1270.4581,1519.7882,1270.6232,1519.6232C1270.7882,1519.4581,1270.8809,1519.2344,1270.8809,1519.001L1270.8799,355.0C1270.8799,354.51404,1270.486,354.1201,1270.0,354.1201L-359.001,354.11908 Z"/> </g> </g> <g id="layer2"> <g style="fill:rgb(15,59,82); fill-opacity:0.99607843; stroke-linejoin: miter"> <path d="M954.65906,1082.6011L954.65894,1082.6036L954.6588,1082.6025L954.65894,1082.6011L954.65906,1082.6036L954.65894,1082.6011L954.6588,1082.6025Q954.65894,1082.6011,954.65906,1082.6011 Z"/> </g> <g style="fill:rgb(0,0,0); fill-opacity:1.0; stroke-linejoin: miter"> <path d="M1006.5071,914.7757Q999.44604,912.4268,994.0841,914.7364Q993.3507,914.8405,986.0619,919.0262Q977.3994,922.2933,976.7511,923.039Q973.4896,925.1087,971.8019,928.80695Q966.6454,940.98224,968.9508,958.2536Q969.4645,961.914,970.3583,965.87164L978.1797,974.07294Q998.14233,966.6928,1005.76355,960.4782Q1009.6676,957.4643,1013.32385,952.936Q1015.5242,950.41986,1022.0891,940.27826Q1023.16833,938.7482,1024.2594,937.5407Q1026.761,934.66327,1030.4938,933.2762Q1030.1857,928.39777,1024.4984,924.22186Q1015.8528,917.8864,1006.5376,914.78595 Z"/> </g> <g style="fill:rgb(255,197,173); fill-opacity:1.0; stroke-linejoin: miter"> <path d="M1084.5894,1052.7507Q1082.3387,1052.8656,1080.0188,1054.2642Q1077.8652,1055.4779,1072.693,1059.7402L1067.1426,1060.1387L1067.731,1073.6145Q1073.6548,1076.0339,1076.135,1076.0367Q1078.518,1076.202,1081.4395,1073.9286Q1084.439,1076.7205,1086.5891,1076.4661Q1089.5406,1076.3899,1094.0342,1071.0288Q1098.7689,1065.0695,1098.6562,1061.8002Q1098.5339,1060.267,1097.0953,1059.3522Q1095.8289,1058.49,1092.3259,1057.7417Q1095.5272,1057.4418,1095.8236,1056.4827Q1096.2493,1054.8341,1094.2979,1053.3904Q1093.367,1052.7367,1091.5425,1052.6204Q1090.9717,1052.5823,1090.1343,1052.5988L1084.5919,1052.7507 Z"/> </g> <g style="fill:rgb(255,255,255); fill-opacity:1.0; stroke-linejoin: miter"> <path d="M1067.9058,1059.7605L1063.2925,1059.7898L1060.0759,1080.9535Q1064.028,1082.2865,1065.6024,1081.9476Q1067.5009,1081.6404,1068.2422,1079.6096Q1069.0037,1077.5889,1068.9231,1073.0195Q1068.8939,1069.1884,1067.9075,1059.7793 Z"/> </g> <g style="fill:rgb(0,0,0); fill-opacity:1.0; stroke-linejoin: miter"> <path d="M900.3487,1015.2377L900.3328,1015.2604Q886.1569,1035.4043,884.4139,1035.7819Q884.3957,1035.7859,884.3787,1035.7898Q883.5732,1035.896,885.3145,1031.5322Q886.74567,1027.8612,892.0472,1016.61365L900.3487,1015.2377 Z M941.78467,954.64325Q940.1897,954.8555,938.62415,955.50995Q938.5824,955.51166,938.5377,955.518Q936.2875,955.8184,928.1547,964.23615Q925.1202,966.44196,921.6796,967.8774Q879.9329,979.9467,877.9383,982.195Q867.59357,987.215,863.7962,995.96454Q861.7989,1000.30194,860.43976,1006.4823L849.58966,1058.7781Q848.3614,1067.0194,854.8477,1066.153Q856.5671,1065.9242,858.8287,1065.0544L858.82965,1065.057L834.99603,1097.1964L841.66034,1102.8341Q840.91864,1109.8077,841.63165,1117.8955Q846.8094,1155.7493,846.35077,1156.3827Q846.89386,1163.8586,846.26495,1175.4952L803.0656,1163.0068Q797.9241,1156.3536,782.6459,1149.5057Q773.3733,1158.2278,771.584,1174.8723Q770.3036,1183.8982,769.3342,1203.8823Q819.0937,1215.1857,859.52496,1229.4575Q867.3162,1231.6125,872.12164,1231.3164Q872.7707,1231.2961,873.3951,1231.2128Q880.75006,1230.23,884.7044,1220.6302Q888.9687,1211.8104,900.4687,1166.7118L926.8901,1191.9637L900.6801,1290.1324L901.10187,1290.3407L948.802,1295.5054L973.49634,1199.0654Q975.94666,1187.0398,971.2007,1175.7097Q967.08704,1164.7943,949.11194,1139.3754L949.1135,1139.3765L955.6968,1138.9739L938.6271,1087.6803L972.6896,1056.1663Q996.16174,1077.5317,1011.4016,1082.0618Q1018.5149,1084.417,1028.4044,1085.2914Q1064.3909,1085.5892,1066.9552,1086.7937L1066.1449,1058.3899L1018.15,1052.8511L996.6096,1028.8652Q999.2843,1012.01,995.2135,991.3162L970.7495,962.841L963.6614,967.11444Q952.25464,956.4814,947.3098,955.19904L947.0752,955.12213Q944.39026,954.29486,941.78467,954.64325 Z"/> </g> <g style="fill:rgb(255,255,255); fill-opacity:1.0; stroke-linejoin: miter"> <path d="M985.0183,973.4703Q982.0398,969.99335,975.90625,965.3376L974.11914,967.2266Q978.04224,972.36115,979.5187,978.8577Q981.2926,986.2945,981.71204,998.8139Q982.5974,1020.36633,976.2075,1037.2891Q985.6902,1030.2106,989.2417,1025.4496Q992.7594,1021.01514,993.6018,1014.2411Q993.844,1012.50964,993.9862,1010.34973L994.4597,999.6246Q994.6344,996.5633,995.1798,990.5745Q989.1865,977.9543,985.06116,973.5186 Z"/> </g> <g style="fill:rgb(255,197,173); fill-opacity:1.0; stroke-linejoin: miter"> <path d="M1023.9641,936.3343Q1015.0665,936.76935,1013.4292,938.9351Q1011.7866,940.5181,1012.07166,945.6104L1006.6835,949.26373L1004.5674,956.97577L1000.5797,956.8327Q999.24365,949.9998,998.1819,948.54425Q996.96814,946.6849,994.584,947.6093Q991.7003,948.69904,990.39,950.92084Q989.4498,952.2952,989.57117,957.0483Q989.3616,957.89703,988.5553,958.6816Q987.50024,960.1674,975.42224,966.8151L993.94055,991.6893L1003.78284,986.5452L1010.4287,985.5732Q1017.28613,988.30304,1018.85974,987.08014Q1020.678,986.2342,1019.84436,979.1508Q1022.29517,976.17755,1022.272,975.04486Q1022.42883,973.7286,1020.28784,972.01434Q1023.34753,972.1429,1023.97546,971.1159Q1024.8071,970.1855,1024.5688,966.1923Q1029.8577,966.55536,1029.7474,965.0026Q1029.8536,964.24725,1028.9841,962.5483L1024.5093,954.7132L1024.5754,952.60443Q1025.9543,950.13837,1025.7908,947.35516Q1025.7659,944.68317,1023.9718,936.37103 Z"/> </g> <g style="fill:rgb(255,197,173); fill-opacity:1.0; stroke-linejoin: miter"> <path d="M862.9395,1059.9569Q858.69867,1070.5398,857.9145,1073.8239Q857.51886,1075.3425,857.43536,1076.5398Q857.35126,1077.0645,857.4847,1079.6311Q857.4837,1080.163,857.3997,1080.718Q857.3311,1081.1926,857.12506,1081.9321Q856.02484,1085.4271,855.96564,1085.8445Q855.6628,1087.1437,855.70184,1087.9939Q855.75006,1089.3269,856.613,1090.1346Q857.56647,1091.0007,858.8298,1090.9355Q858.9089,1090.929,858.98663,1090.9182Q861.08417,1090.6382,861.81647,1087.5546Q862.2696,1085.7959,862.4146,1083.1454L862.41534,1083.1486Q862.89166,1083.4641,863.2963,1083.6991L863.2951,1083.6995Q863.3768,1084.399,863.3964,1085.1482Q863.408,1085.6016,863.3975,1086.0426L863.3299,1088.0485Q863.3233,1088.5265,863.3431,1088.8944Q863.363,1089.2595,863.41144,1089.5424L863.4106,1089.5446Q862.7646,1091.46,862.4744,1092.5088Q862.0047,1094.1619,861.84235,1095.3911Q861.5075,1097.8525,862.47003,1098.9674Q863.2133,1099.873,864.5297,1100.112Q865.16095,1100.2076,865.7386,1100.1311Q866.23895,1100.0635,866.6995,1099.8671L866.7005,1099.8683Q865.90155,1102.383,866.18866,1103.4163Q866.3686,1104.2997,867.1098,1104.7965Q867.8715,1105.2942,868.9189,1105.2179Q868.99384,1105.2108,869.06854,1105.1997Q870.7995,1104.9684,872.26276,1103.2117Q872.7874,1102.5942,873.3315,1101.7639L873.33234,1101.7654Q875.0555,1102.8241,876.44415,1102.6383Q877.0816,1102.5524,877.6485,1102.2047Q880.1683,1100.7073,881.9128,1096.6277Q884.1608,1091.8654,883.3497,1080.9904L883.3483,1080.9915Q883.9036,1080.821,884.32745,1080.4921L884.32855,1080.4929Q888.8818,1086.3772,891.21893,1087.5603Q892.8693,1088.4869,894.39215,1088.283Q894.6243,1088.2522,894.8527,1088.1965Q896.7214,1087.5935,896.55634,1086.1532Q896.44025,1085.5238,895.67804,1084.7513L894.95807,1084.0687Q892.84393,1082.2594,892.5711,1081.9882Q891.8201,1081.2974,891.19904,1080.6025Q890.1634,1079.4396,889.5053,1078.2465Q887.5351,1074.711,886.6713,1068.4703L886.6701,1068.463L886.5638,1068.71L886.5638,1068.7119Q886.35297,1068.196,886.01605,1067.8065Q884.8354,1066.2478,880.2674,1064.7406Q876.3483,1063.3594,862.9493,1060.0334L862.9406,1060.0312L862.9395,1060.0364L862.94,1060.0381L862.9411,1059.9714L862.94037,1059.9569 Z"/> </g> <g style="fill:rgb(0,0,0); fill-opacity:1.0; stroke-linejoin: miter"> <path d="M773.2261,1136.4326Q769.4944,1134.4363,763.76404,1138.5773Q760.5504,1140.742,753.34717,1147.4304L755.7711,1149.7943Q738.1056,1157.4923,730.3242,1166.356Q722.3164,1175.2383,717.0405,1187.0652Q713.17053,1195.8453,717.22656,1197.1544Q722.7113,1199.8206,724.9636,1198.6975Q726.2604,1198.2552,727.6918,1197.1886Q735.25696,1190.9591,736.75134,1190.1127Q739.42944,1188.3038,742.53467,1187.0012Q745.2919,1185.8298,749.0812,1184.7346Q767.2777,1180.2727,774.40967,1177.7675L785.7992,1150.8334Q776.9883,1137.8739,773.2678,1136.4523 Z"/> </g> <g style="fill:rgb(0,0,0); fill-opacity:1.0; stroke-linejoin: miter"> <path d="M993.04846,991.5727L987.11646,999.28143L991.2709,1004.0266Q991.98755,1010.71936,989.9811,1015.2025Q988.7787,1018.19165,985.5995,1022.3635L982.6963,1025.9851L976.15784,1033.5269Q974.9608,1034.9353,974.37976,1035.7566Q973.04004,1037.5742,973.5459,1038.2507Q974.18005,1039.0981,978.2411,1038.9829Q980.93787,1038.7717,983.1282,1037.5084Q987.2136,1035.2097,989.729,1028.9845Q993.8247,1018.73254,995.66504,1002.40076Q996.0885,997.956,995.52026,994.8654L993.0565,991.5843 Z"/> </g> <g style="fill:rgb(250,87,87); fill-opacity:0.07450981; stroke-linejoin: miter"> <path d="M997.853,973.6717L993.5897,991.3724L1009.58606,985.18964Q1004.32446,981.696,1002.129,979.4693Q1000.0165,977.3963,997.8618,973.686 Z"/> </g> <g style="fill:rgb(0,0,0); fill-opacity:0.99607843; stroke-linejoin: miter"> <path d="M1028.566,943.8532L1028.566,943.8569L1028.5658,943.8543L1028.566,943.8532 Z"/> </g> <g style="fill:rgb(0,0,0); fill-opacity:0.99607843; stroke-linejoin: miter"> <path d="M955.1981,960.19196L955.1981,960.1932L955.1985,960.19403L955.1981,960.19196 Z"/> </g> <g style="fill:rgb(0,0,0); fill-opacity:1.0; stroke-linejoin: miter"> <path d="M902.52875,1289.0432L898.9534,1294.5027L896.0623,1293.4735Q894.01276,1298.3135,893.28546,1301.044Q891.06305,1307.3121,893.737,1320.8611L920.6984,1318.8385L920.4057,1313.6195Q934.7406,1316.5,941.949,1316.978Q950.21545,1317.6193,957.0155,1316.3904Q972.4415,1313.3438,974.89734,1306.8612Q975.6897,1303.0192,970.688,1301.9814Q969.136,1301.6678,966.34155,1301.7495Q966.28125,1301.6721,956.0729,1302.4503Q953.7146,1302.5781,951.7637,1302.5345Q947.4303,1302.4532,944.56885,1301.3136Q938.3419,1298.8854,934.3646,1290.7863L902.6547,1289.049 Z"/> </g> <g style="fill:rgb(30,59,85); fill-opacity:1.0; stroke-linejoin: miter"> <path d="M429.88663,572.8812L395.44116,656.94617L395.48825,657.01917C376.06,655.9818,356.8379,656.9297,338.07217,659.6854L338.085,659.6283L295.9964,579.12524L235.70251,598.35803L247.8898,688.3435L247.99498,688.4265C230.87752,697.17004,214.65741,707.6135,199.57915,719.53235L199.55904,719.34045L122.85907,670.7322L80.2323,717.5117L135.8278,789.4021C125.5119,805.297,116.68357,822.3524,109.52798,840.42896L109.48083,840.3551L18.711655,836.6018L5.1960497,898.4619L89.2597,932.90625L89.33281,932.86145C88.29872,952.27075,89.207184,971.4581,91.95343,990.2064L11.440899,1032.3553L30.671478,1092.6492L120.65721,1080.4608L120.75488,1080.2954C129.48857,1097.4148,139.87439,1113.6729,151.78618,1128.7557L151.6554,1128.791L103.04769,1205.4906L149.8255,1248.119L221.65407,1192.5101L221.66772,1192.4482C237.57172,1202.7787,254.64911,1211.6562,272.73816,1218.8223L272.66513,1218.8657L268.9112,1309.6338L330.71033,1323.137L365.15656,1239.0737L365.11084,1239.0037C384.53214,1240.0465,403.75238,1239.1388,422.5134,1236.3927L464.6622,1316.9059L524.95514,1297.6732L512.7079,1207.6748C529.7854,1198.9578,545.98755,1188.5566,561.0383,1176.6774L637.7975,1225.2982L680.365,1178.5059L624.828,1106.6316C635.1459,1090.7382,644.0299,1073.6975,651.18677,1055.6178L741.94214,1059.433L755.45764,997.5747L671.3949,963.12964C672.4236,943.73645,671.44604,924.5619,668.7007,905.83203L749.1555,863.6675L729.98315,803.3887L639.9397,815.5637C631.2158,798.48865,620.8274,782.2816,608.94214,767.23425L657.6095,690.54126L610.8319,647.91675L538.9459,703.5161C523.037,693.1959,505.9466,684.3579,487.86044,677.20386L487.93225,677.1577L491.68604,586.3866L429.88596,572.8856 Z M427.93027,730.15247C548.2643,756.44653,624.5481,875.2969,598.2578,995.62537C571.96484,1115.9586,453.07452,1192.1561,332.73062,1165.8605C212.39552,1139.57,136.18558,1020.7383,162.47652,900.4116C188.76964,780.07446,307.60034,703.8613,427.93027,730.15247 Z"/> </g> <g style="fill:rgb(0,0,0); fill-opacity:0.46666667; stroke-linejoin: miter"> <path d="M1127.1788,1323.4081L1121.5898,1324.0215Q1112.7598,1324.4335,1096.371,1324.8088Q1048.7856,1325.7151,1030.1982,1325.8523Q974.74524,1326.493,889.05804,1326.987Q778.2289,1327.5469,751.97754,1327.5807Q655.4836,1327.8785,545.3714,1327.9156Q402.37207,1327.9131,377.30267,1327.8085Q270.68134,1327.6223,183.91954,1327.2129Q79.811676,1326.6522,64.948,1326.4731Q-193.99835,1324.2034,-38.724804,1321.4728Q23.397598,1320.6326,45.6705,1320.5028Q116.67616,1319.886,206.89299,1319.4973Q341.4887,1318.9196,514.9327,1318.8872Q546.5378,1318.8547,678.66455,1319.0559Q730.00446,1319.1576,777.028,1319.3198Q871.075,1319.6444,947.8561,1320.2113Q1024.6371,1320.7783,1068.5901,1321.4728Q1090.5665,1321.82,1104.3362,1322.1991Q1131.5785,1323.1747,1127.1787,1323.4081"/> </g> <g style="fill:rgb(83,93,102); fill-opacity:1.0; stroke-linejoin: miter"> <path d="M379.41257,723.4347C255.38892,723.93933,155.2488,824.8983,155.7536,948.92346C156.25858,1072.9474,257.2174,1173.0883,381.2407,1172.584C505.2644,1172.0793,605.4048,1071.1205,604.90015,947.0962C604.39526,823.0709,503.43652,722.92993,379.41257,723.4347 Z"/> </g> <g style="fill:rgb(255,255,255); fill-opacity:1.0; stroke-linejoin: miter"> <path d="M366.42554,962.0249C370.01367,965.5841,374.958,967.77466,380.4071,967.7528C390.87088,967.70935,399.42538,959.4916,400.02518,949.18396L496.85263,851.5543L475.83008,830.70215L380.24146,927.06274L315.41022,862.7661L294.55807,883.78796L360.63864,949.3435C360.95486,954.2975,363.11487,958.74146,366.42554,962.0249 Z M379.53317,753.04846C487.0325,752.61084,574.8484,839.7162,575.28613,947.2162C575.72314,1054.7152,488.61914,1142.5331,381.12012,1142.969C273.6215,1143.4065,185.8055,1056.3021,185.3676,948.80286C184.93025,841.3031,272.0341,753.4857,379.53317,753.04846 Z"/> </g> <g style="fill:rgb(125,139,150); fill-opacity:1.0; stroke-linejoin: miter"> <path d="M381.50015,928.3109L380.24146,927.06274L315.41022,862.7661L294.55807,883.78796L360.63864,949.3435C360.5973,948.9286,360.5858,948.5143,360.5842,948.0897L380.24634,928.26636C380.67084,928.26514,381.08572,928.27356,381.50015,928.3109 Z"/> </g> <g style="fill:rgb(83,93,102); fill-opacity:1.0; stroke-linejoin: miter"> <path d="M496.85263,851.5543L475.83008,830.70215L380.24146,927.06274L381.50015,928.3109L400.06955,947.92944C400.07098,948.35364,400.06308,948.7683,400.02518,949.18396L496.85263,851.5543 Z"/> </g> <g style="fill:rgb(83,93,102); fill-opacity:1.0; stroke-linejoin: miter"> <path d="M373.8222,944.05505L279.52954,1039.1194C276.65,1042.0222,276.66898,1046.7102,279.57202,1049.5883C281.02292,1051.0277,282.9216,1051.7427,284.81555,1051.7358C286.70996,1051.7279,288.60233,1050.9972,290.04184,1049.5458L384.33435,954.4818L373.8222,944.05505 Z"/> </g> <g style="fill:rgb(0,0,0); fill-opacity:1.0; stroke-linejoin: miter"> <path d="M380.4071,967.7528C391.29315,967.70764,400.11374,958.81555,400.06955,947.92944C400.02493,937.04333,391.13263,928.2223,380.24634,928.26636C369.36002,928.3109,360.5397,937.203,360.5842,948.0897C360.62848,958.9757,369.5209,967.79663,380.4071,967.7528 Z"/> </g> <g style="fill:rgb(0,0,0); fill-opacity:1.0; stroke-linejoin: miter"> <path d="M379.80453,819.68066C375.7156,819.697,372.3875,816.396,372.37076,812.3071L372.25034,782.69275C372.2336,778.6034,375.53476,775.27637,379.62366,775.2589C383.7122,775.2428,387.0407,778.54443,387.05716,782.6328L387.17804,812.2466C387.1945,816.3351,383.89294,819.6644,379.80453,819.68066 Z"/> </g> <g style="fill:rgb(0,0,0); fill-opacity:1.0; stroke-linejoin: miter"> <path d="M545.7023,954.7406L516.088,954.8622C511.99927,954.8778,508.6709,951.57666,508.65442,947.4873C508.6377,943.39905,511.93896,940.0714,516.0277,940.05347L545.64185,939.9343C549.7306,939.91675,553.05884,943.2185,553.0757,947.3065C553.09216,951.3954,549.791,954.72424,545.7023,954.7406 Z"/> </g> <g style="fill:rgb(0,0,0); fill-opacity:1.0; stroke-linejoin: miter"> <path d="M381.02985,1120.7588C376.94107,1120.7755,373.61298,1117.4739,373.59607,1113.3862L373.4756,1083.7715C373.45886,1079.6821,376.7602,1076.3551,380.84915,1076.3378C384.93784,1076.3213,388.26614,1079.6223,388.28256,1083.7114L388.4032,1113.3253C388.41974,1117.4141,385.11838,1120.7426,381.02985,1120.7588 Z"/> </g> <g style="fill:rgb(0,0,0); fill-opacity:1.0; stroke-linejoin: miter"> <path d="M244.626,955.96484L215.01204,956.08704C210.92322,956.1024,207.59492,952.8019,207.57825,948.7125C207.56169,944.62366,210.86287,941.29565,214.95169,941.2793L244.56566,941.1593C248.65448,941.14197,251.98245,944.44275,251.99927,948.5321C252.01599,952.6206,248.71483,955.9492,244.626,955.96484 Z"/> </g> <g style="fill:rgb(21,64,70); fill-opacity:1.0; stroke-linejoin: miter"> <path d="M369.03387,779.6942L369.03387,779.69446L369.03387,779.6947L369.03387,779.6942 Z"/> </g> <g style="fill:rgb(30,59,85); fill-opacity:0.4862745; stroke-linejoin: miter"> <path d="M-142.46939,770.5187L-59.024483,770.51917L24.420425,770.51965Q24.420425,791.6986,24.420425,812.87756Q-59.024483,812.87805,-142.46939,812.87854Q-142.46939,791.6986,-142.46939,770.5187"/> </g> <g style="fill:rgb(30,59,85); fill-opacity:0.4862745; stroke-linejoin: miter"> <path d="M-129.28473,1138.1721L-21.959122,1138.1726L85.366486,1138.1731Q85.366486,1159.352,85.366486,1180.5311Q-21.959122,1180.5316,-129.28473,1180.5321Q-129.28473,1159.352,-129.28473,1138.1721"/> </g> <g style="fill:rgb(30,59,85); fill-opacity:0.4862745; stroke-linejoin: miter"> <path d="M-207.16934,960.6764L-123.724434,960.6769L-40.279526,960.67737Q-40.279526,981.8563,-40.279526,1003.0353Q-123.724434,1003.03577,-207.16934,1003.03625Q-207.16934,981.8563,-207.16934,960.6764"/> </g> </g> </svg>